<?xml version="1.0" encoding="UTF-8"?>
<svg xmlns="http://www.w3.org/2000/svg" xmlns:xlink="http://www.w3.org/1999/xlink" width="24px" height="25px" viewBox="0 0 24 24" version="1.1">
<g id="surface1">
<path style=" stroke:none;fill-rule:nonzero;fill:rgb(0%,0%,0%);fill-opacity:1;" d="M 8.027344 18.628906 C 8.027344 18.722656 7.917969 18.796875 7.777344 18.796875 C 7.617188 18.8125 7.503906 18.734375 7.503906 18.628906 C 7.503906 18.535156 7.617188 18.460938 7.757812 18.460938 C 7.902344 18.445312 8.027344 18.519531 8.027344 18.628906 Z M 6.523438 18.417969 C 6.488281 18.511719 6.585938 18.617188 6.730469 18.648438 C 6.855469 18.695312 7 18.648438 7.03125 18.554688 C 7.058594 18.460938 6.96875 18.351562 6.824219 18.308594 C 6.695312 18.277344 6.554688 18.324219 6.523438 18.417969 Z M 8.660156 18.335938 C 8.519531 18.371094 8.425781 18.460938 8.4375 18.566406 C 8.453125 18.660156 8.578125 18.722656 8.722656 18.6875 C 8.863281 18.65625 8.960938 18.566406 8.945312 18.472656 C 8.933594 18.382812 8.800781 18.324219 8.660156 18.335938 Z M 11.84375 0.375 C 5.132812 0.375 0 5.3125 0 11.8125 C 0 17.011719 3.378906 21.460938 8.203125 23.023438 C 8.820312 23.132812 9.039062 22.761719 9.039062 22.457031 C 9.039062 22.167969 9.023438 20.5625 9.023438 19.578125 C 9.023438 19.578125 5.636719 20.28125 4.925781 18.183594 C 4.925781 18.183594 4.375 16.820312 3.582031 16.46875 C 3.582031 16.46875 2.472656 15.730469 3.65625 15.746094 C 3.65625 15.746094 4.863281 15.839844 5.527344 16.953125 C 6.585938 18.765625 8.359375 18.242188 9.054688 17.933594 C 9.164062 17.183594 9.480469 16.664062 9.828125 16.355469 C 7.121094 16.0625 4.394531 15.683594 4.394531 11.175781 C 4.394531 9.886719 4.761719 9.238281 5.535156 8.414062 C 5.410156 8.109375 5 6.851562 5.660156 5.230469 C 6.671875 4.925781 9 6.496094 9 6.496094 C 9.96875 6.234375 11.007812 6.097656 12.039062 6.097656 C 13.070312 6.097656 14.109375 6.234375 15.078125 6.496094 C 15.078125 6.496094 17.40625 4.921875 18.417969 5.230469 C 19.078125 6.859375 18.667969 8.109375 18.542969 8.414062 C 19.316406 9.242188 19.789062 9.890625 19.789062 11.175781 C 19.789062 15.699219 16.941406 16.058594 14.234375 16.355469 C 14.679688 16.726562 15.058594 17.429688 15.058594 18.53125 C 15.058594 20.109375 15.042969 22.0625 15.042969 22.449219 C 15.042969 22.753906 15.265625 23.125 15.878906 23.015625 C 20.71875 21.460938 24 17.011719 24 11.8125 C 24 5.3125 18.554688 0.375 11.84375 0.375 Z M 4.703125 16.542969 C 4.640625 16.589844 4.65625 16.695312 4.738281 16.785156 C 4.816406 16.859375 4.925781 16.894531 4.988281 16.832031 C 5.050781 16.785156 5.035156 16.679688 4.953125 16.589844 C 4.878906 16.515625 4.765625 16.480469 4.703125 16.542969 Z M 4.179688 16.164062 C 4.148438 16.222656 4.195312 16.296875 4.292969 16.34375 C 4.371094 16.390625 4.464844 16.378906 4.5 16.3125 C 4.535156 16.25 4.484375 16.175781 4.390625 16.128906 C 4.292969 16.101562 4.214844 16.117188 4.179688 16.164062 Z M 5.75 17.832031 C 5.671875 17.890625 5.699219 18.03125 5.8125 18.121094 C 5.921875 18.230469 6.0625 18.242188 6.125 18.167969 C 6.1875 18.109375 6.160156 17.96875 6.0625 17.878906 C 5.957031 17.769531 5.8125 17.757812 5.75 17.832031 Z M 5.195312 17.140625 C 5.121094 17.1875 5.121094 17.3125 5.195312 17.417969 C 5.273438 17.527344 5.40625 17.574219 5.46875 17.527344 C 5.546875 17.464844 5.546875 17.34375 5.46875 17.234375 C 5.398438 17.128906 5.273438 17.082031 5.195312 17.140625 Z M 5.195312 17.140625 "/>
</g>
</svg>
